<?xml version="1.0"?>
<svg xmlns="http://www.w3.org/2000/svg" width="86" height="100" viewBox="0 0 86 100" fill="none">
<g clip-path="url(#clip0)">
<path d="M45.4238 0L72.2608 64.2571V0H45.4238Z" fill="#FA0F00"/>
<path d="M-0.350586 0V64.2571L26.5081 0H-0.350586Z" fill="#FA0F00"/>
<path d="M35.9677 23.6816L53.0699 64.2555H41.8629L36.746 51.3333H24.2324L35.9677 23.6816Z" fill="#FA0F00"/>
<path d="M8.99005 90.0114C8.48896 87.3967 7.55798 83.4576 7.19929 80.9157H7.16342C6.80527 83.3864 6.12537 86.8597 5.51614 90.0114H8.99005ZM4.72864 93.8429L3.54657 99.4293C3.5107 99.644 3.43896 99.6804 3.26016 99.6804H-0.141472C-0.35669 99.6804 -0.428429 99.6086 -0.392559 99.3217L4.29874 79.0891C4.44222 78.4804 4.44222 78.1576 4.44222 77.119C4.44222 76.976 4.51342 76.9043 4.6569 76.9043H9.527C9.70635 76.9043 9.77755 76.976 9.81342 77.1554L15.2928 99.3934C15.3286 99.6086 15.2569 99.6804 15.0775 99.6804H11.2819C11.1025 99.6804 10.9955 99.5722 10.9955 99.4293L9.74222 93.8429H4.72864Z" fill="#FA0F00"/>
<path d="M24.3366 85.6072C24.16 85.5365 23.9828 85.5007 23.5584 85.5007C21.5774 85.5007 20.0921 87.305 20.0921 90.842C20.0921 94.5914 21.5774 96.1485 23.523 96.1485C23.7709 96.1485 24.1247 96.1126 24.3366 96.042V85.6072ZM15.8828 90.9838C15.8828 85.8191 18.9247 81.8224 23.7709 81.8224H24.3366V75.7387C24.3366 75.6322 24.4073 75.5615 24.5486 75.5615H28.3339C28.4752 75.5615 28.5105 75.6322 28.5105 75.7387V96.1126C28.5105 96.643 28.4752 97.3507 28.6165 98.4822C28.6165 98.5887 28.6165 98.6594 28.4752 98.73C27.0247 99.4729 25.1502 99.968 23.3464 99.968C18.8893 99.968 15.8828 97.0675 15.8828 90.9838Z" fill="#FA0F00"/>
<path d="M34.914 90.856C34.914 94.1457 35.6216 96.3033 37.2129 96.3033C38.7341 96.3033 39.477 94.4642 39.477 90.8914C39.477 87.5664 38.9113 85.5147 37.2482 85.5147C35.7982 85.5147 34.914 87.1772 34.914 90.856ZM43.6509 90.856C43.6509 96.4446 41.3161 99.9821 37.2129 99.9821C32.6151 99.9821 30.7754 95.9495 30.7754 90.8207C30.7754 85.5859 33.1102 81.8359 37.2841 81.8359C41.2808 81.8359 43.6509 85.1609 43.6509 90.856Z" fill="#FA0F00"/>
<path d="M51.3241 85.5719C51.0409 85.5719 50.4398 85.6072 50.0507 85.7485V96.1827C50.3333 96.2539 50.5811 96.2539 50.7936 96.2539C52.3855 96.2539 54.2599 94.6267 54.2953 90.2409C54.3306 86.8094 52.9512 85.5719 51.3241 85.5719ZM49.8741 75.5615C50.0154 75.5615 50.0507 75.6322 50.0507 75.774V82.0344C50.5458 81.9284 51.1469 81.8224 51.9605 81.8224C55.6393 81.8224 58.4338 84.6523 58.4338 90.1349C58.4338 96.5371 54.7904 99.968 50.2273 99.968C48.9186 99.968 47.5746 99.7914 46.1241 99.3316C46.0181 99.2963 45.9121 99.1898 45.9121 99.0479V75.774C45.9121 75.6322 45.9828 75.5615 46.1241 75.5615H49.8741Z" fill="#FA0F00"/>
<path d="M67.182 88.5566C67.8543 88.5566 68.1369 88.5566 68.2435 88.5213C68.2782 88.3446 68.2782 88.2734 68.2782 88.1321C68.2782 86.7881 67.8543 85.3729 66.4038 85.3729C64.9891 85.3729 64.4228 86.8234 64.2462 88.5566H67.182ZM64.1755 91.8821C64.1755 94.6055 65.2011 96.268 68.0663 96.268C69.0212 96.268 69.7994 96.1267 70.7543 95.7724C70.9315 95.7022 71.0375 95.7022 71.0375 95.9495V98.8854C71.0375 99.1327 70.9668 99.2745 70.7897 99.3457C69.7994 99.8756 68.4554 99.9816 67.288 99.9816C62.0886 99.9816 60.0723 96.162 60.0723 91.1745C60.0723 85.8685 62.407 81.8359 66.5451 81.8359C70.8962 81.8359 72.1695 85.6919 72.1695 88.8397C72.1695 89.9718 72.0636 91.0685 71.9929 91.4925C71.957 91.6696 71.8511 91.7403 71.6739 91.7756C71.3206 91.8109 70.2239 91.8821 68.3136 91.8821H64.1755Z" fill="#FA0F00"/>
</g>
<defs>
<clipPath id="clip0">
<rect width="100" height="100" fill="white" transform="translate(-14)"/>
</clipPath>
</defs>
</svg>
